<svg xmlns="http://www.w3.org/2000/svg" width="155.418" height="59.298" viewBox="0 0 155.418 59.298">
  <g id="Layer_2" data-name="Layer 2" transform="translate(0.007)">
    <g id="Layer_1" data-name="Layer 1" transform="translate(-0.007)">
      <path id="Path_1" data-name="Path 1" d="M4.793,14.938H3.667A3.462,3.462,0,0,1,0,11.261,3.438,3.438,0,0,1,3.667,7.595H4.793V5.2c0-3.27,1.8-5.2,4.96-5.2s4.96,1.929,4.96,5.151v2.4h2.4a3.45,3.45,0,0,1,3.678,3.714,3.45,3.45,0,0,1-3.666,3.678h-2.4V27.744c0,1.9.647,2.659,2.048,2.8l.611.084c2.216.252,3.51,1.2,3.51,3.522,0,2.887-3.139,4.349-6.984,4.349h-.252c-5.894,0-8.865-2.911-8.865-8.553Z" transform="translate(0.007)" fill="#f7941d"/>
      <path id="Path_2" data-name="Path 2" d="M19.34,21.866c0-9.823,5.882-16.136,15.166-16.136,9.08,0,15.046,5.99,15.046,14.232a3.594,3.594,0,0,1-4.013,3.929H28.972v.563a5.822,5.822,0,0,0,5.99,6.217,8.733,8.733,0,0,0,6.852-3.055A3.977,3.977,0,0,1,44.892,26.3a3.474,3.474,0,0,1,3.726,3.474,4.169,4.169,0,0,1-.671,2.24c-2.013,3.594-6.948,5.75-13.034,5.75-9.775,0-15.573-5.918-15.573-15.837m20.868-3.594a5.331,5.331,0,0,0-5.487-5.439,5.57,5.57,0,0,0-5.606,5.439Z" transform="translate(3.836 1.134)" fill="#f7941d"/>
      <path id="Path_3" data-name="Path 3" d="M47.776,40.481V10.9c0-3.45,2.048-5.1,4.96-5.1s4.9,1.653,4.9,5.127v.958h.192A9.512,9.512,0,0,1,67.111,6.04c7.7,0,12.2,5.75,12.2,15.729S74.85,37.4,67.219,37.4c-4.48,0-7.847-2.12-9.332-5.654h-.192v8.733c0,3.474-2.072,5.151-4.96,5.151s-5-1.677-5-5.151m21.419-18.76c0-4.852-2.24-7.966-5.75-7.966s-5.714,3.139-5.774,7.966,2.24,7.93,5.738,7.93,5.75-3.091,5.75-7.93" transform="translate(9.458 1.148)" fill="#f7941d"/>
      <path id="Path_4" data-name="Path 4" d="M76.536,21.7c0-9.859,5.99-15.969,15.442-15.969,6.313,0,11.464,2.827,13.345,7.188a6.385,6.385,0,0,1,.611,2.516c0,2.4-1.989,3.75-4.253,3.75a4.313,4.313,0,0,1-4.073-2.4c-1.426-2.492-3.019-3.594-5.259-3.594-3.594,0-5.75,2.995-5.75,8.386s2.048,8.469,5.69,8.469a5.99,5.99,0,0,0,5.175-3.019c1.294-1.881,2.4-2.755,4.48-2.755a3.881,3.881,0,0,1,4.145,3.905,5.594,5.594,0,0,1-.695,2.576C103.37,34.876,97.991,37.7,92,37.7c-9.584,0-15.5-5.99-15.5-16" transform="translate(15.151 1.134)" fill="#f7941d"/>
      <path id="Path_5" data-name="Path 5" d="M103.73,21.7c0-9.967,6.133-15.969,15.573-15.969s15.573,5.99,15.573,15.969c0,10.207-5.99,16-15.573,16s-15.573-5.834-15.573-16m21.156,0c0-5.5-2.156-8.721-5.546-8.721s-5.523,3.222-5.523,8.721,2.1,8.685,5.523,8.685,5.546-3.115,5.546-8.685" transform="translate(20.541 1.134)" fill="#f7941d"/>
      <path id="Path_6" data-name="Path 6" d="M57.7,46.188a4.948,4.948,0,1,1-4.948-4.948A4.948,4.948,0,0,1,57.7,46.188" transform="translate(9.47 8.163)" fill="#f7941d"/>
      <path id="Path_7" data-name="Path 7" d="M14.475,46.188A4.948,4.948,0,1,1,9.528,41.24a4.948,4.948,0,0,1,4.948,4.948" transform="translate(0.915 8.163)" fill="#58595b"/>
      <path id="Path_8" data-name="Path 8" d="M36.085,46.188a4.948,4.948,0,1,1-4.948-4.948,4.948,4.948,0,0,1,4.948,4.948" transform="translate(5.192 8.163)" fill="#58595b"/>
      <path id="Path_9" data-name="Path 9" d="M100.915,46.188a4.948,4.948,0,1,1-4.948-4.948,4.948,4.948,0,0,1,4.948,4.948" transform="translate(18.025 8.163)" fill="#58595b"/>
      <path id="Path_10" data-name="Path 10" d="M79.305,46.188a4.948,4.948,0,1,1-4.948-4.948,4.948,4.948,0,0,1,4.948,4.948" transform="translate(13.748 8.163)" fill="#58595b"/>
      <path id="Path_11" data-name="Path 11" d="M122.525,46.188a4.948,4.948,0,1,1-4.948-4.948,4.948,4.948,0,0,1,4.948,4.948" transform="translate(22.303 8.163)" fill="#58595b"/>
      <path id="Path_12" data-name="Path 12" d="M52.736,45.588h0A4.924,4.924,0,0,1,47.8,40.664V10.715a4.936,4.936,0,0,1,9.859,0V40.664a4.924,4.924,0,0,1-4.924,4.924" transform="translate(9.47 1.192)" fill="#f7941d"/>
    </g>
  </g>
</svg>
